<svg width="16" height="16" viewBox="0 0 16 16" fill="none" xmlns="http://www.w3.org/2000/svg">
<g clip-path="url(#clip0_4197_343)">
<path d="M15.059 14.1468C15.059 14.1468 15.0558 14.1309 15.0481 14.1009C15.0406 14.0707 15.0294 14.0259 15.0126 13.9686C14.9969 13.9104 14.9746 13.8405 14.9481 13.7574C14.9232 13.6728 14.8855 13.5829 14.844 13.4799L14.7756 13.3185C14.7506 13.2626 14.7256 13.2026 14.6946 13.1445C14.6647 13.0854 14.6334 13.0236 14.5995 12.9603C14.5648 12.8942 14.5292 12.8286 14.4926 12.7636C14.4142 12.6325 14.3271 12.4946 14.2325 12.3497C14.1836 12.2793 14.1315 12.2088 14.0787 12.1354C14.0245 12.0636 13.97 11.9883 13.9116 11.9143C13.8517 11.8424 13.791 11.7679 13.7272 11.6936C13.6629 11.6202 13.5996 11.5414 13.5288 11.4699C13.3896 11.3239 13.2452 11.1699 13.0857 11.027C13.0066 10.9546 12.9269 10.8795 12.8433 10.8077C12.8005 10.7719 12.7573 10.7359 12.7136 10.6998C12.7105 10.4751 12.6541 10.2545 12.5491 10.0559C12.5491 10.0559 12.4632 9.89317 12.3016 9.61439C12.2604 9.54514 12.2121 9.46989 12.1599 9.38792C12.1072 9.30617 12.0519 9.21673 11.9883 9.12395C11.8589 8.93986 11.7151 8.73067 11.5411 8.51448L11.4101 8.3477C11.3646 8.29167 11.3161 8.23632 11.2676 8.17942C11.17 8.06617 11.0716 7.94714 10.9611 7.83257C10.8522 7.71667 10.7426 7.59601 10.6222 7.48014L10.4416 7.30323C10.3806 7.24392 10.3161 7.18692 10.2526 7.12801C10.1884 7.06985 10.1237 7.01123 10.0576 6.95323L9.85443 6.78204C9.72033 6.66507 9.57402 6.55842 9.43121 6.44673C9.39018 6.41557 9.34885 6.3848 9.30724 6.35442L9.23705 6.10295C9.22493 6.05751 9.21033 6.01323 9.19952 5.96714L9.16702 5.82939C9.14565 5.73773 9.12358 5.64657 9.1003 5.55601C9.0879 5.51104 9.07968 5.46479 9.07058 5.41898C9.06167 5.37324 9.05232 5.3276 9.04252 5.28204L8.9849 5.01126C8.96549 4.92157 8.95237 4.83101 8.93599 4.74229C8.86533 4.38773 8.81668 4.04226 8.76008 3.72079C8.74927 3.64007 8.7373 3.56076 8.72562 3.48304C8.71445 3.40682 8.70265 3.33069 8.69021 3.25467L8.67255 3.14423C8.66668 3.10782 8.65946 3.07189 8.65524 3.03632C8.64613 2.96705 8.63645 2.89785 8.62621 2.82873C8.60807 2.70222 8.58854 2.57591 8.56765 2.44982L8.55337 2.36326C8.54846 2.33498 8.5433 2.3072 8.53968 2.28011L8.51658 2.12489C8.49325 1.97078 8.467 1.81713 8.43787 1.66401C8.41705 1.5567 8.40383 1.49882 8.40383 1.49882L8.4023 1.49211C8.39286 1.45161 8.37134 1.41495 8.3406 1.38695C8.30986 1.35896 8.27134 1.34096 8.23014 1.33535C8.18895 1.32973 8.14702 1.33676 8.1099 1.3555C8.07279 1.37424 8.04224 1.40381 8.0223 1.44029C8.0223 1.44029 7.99387 1.49242 7.94449 1.59132C7.87388 1.73411 7.80637 1.8784 7.74199 2.02411C7.65518 2.21136 7.56902 2.44376 7.47174 2.71276C7.44664 2.78215 7.42214 2.85176 7.39824 2.92157C7.37343 2.99351 7.35224 3.06857 7.32915 3.14542C7.30538 3.22431 7.28232 3.30342 7.25999 3.38273C7.23677 3.46398 7.21302 3.54732 7.19018 3.63276C7.10808 3.97689 7.02083 4.35267 6.96593 4.76161C6.95415 4.84879 6.93999 4.93682 6.92905 5.02664C6.81205 4.98032 6.69424 4.9382 6.57912 4.89582C6.41515 4.84104 6.25608 4.78564 6.09508 4.74236C6.01493 4.72011 5.93746 4.69557 5.85808 4.67654L5.62437 4.62014C5.46887 4.58682 5.31962 4.55351 5.1708 4.53173C5.09671 4.52023 5.02527 4.50695 4.95324 4.49795L4.74174 4.47326C4.67312 4.46511 4.60399 4.46051 4.53762 4.45548C4.47105 4.45064 4.40633 4.44604 4.34183 4.44454C4.2778 4.44226 4.21568 4.44004 4.15537 4.43907L3.97743 4.44148C3.94874 4.44214 3.9209 4.44201 3.89299 4.44336L3.81018 4.44867L3.65455 4.45948L3.50946 4.47679C3.46368 4.48226 3.41999 4.4877 3.37737 4.49598C3.2923 4.51182 3.22196 4.52304 3.1469 4.54173L3.04915 4.56536C3.03477 4.56904 3.01937 4.57251 3.00799 4.57636L2.97805 4.58764C2.90258 4.61598 2.86246 4.63236 2.86246 4.63236C2.74343 4.68195 2.6484 4.78951 2.62255 4.92567C2.58171 5.14089 2.72308 5.34845 2.93827 5.38929L2.93946 5.38951C2.93946 5.38951 2.98208 5.39761 3.06174 5.41042L3.09337 5.41554C3.10362 5.41767 3.11115 5.42117 3.12068 5.42389L3.17955 5.44264L3.3374 5.49223C3.35274 5.49736 3.36808 5.50129 3.3844 5.50695L3.43465 5.52476L3.54096 5.56223L3.65683 5.60717L3.71743 5.63073L3.78049 5.65726C3.95043 5.72523 4.14118 5.81789 4.34515 5.91835C4.44712 5.97145 4.55249 6.02557 4.66068 6.08582L4.74227 6.13036L4.82446 6.17848C4.87974 6.21042 4.93593 6.24132 4.99218 6.27495C5.10412 6.34457 5.21937 6.41204 5.3348 6.48732C5.39268 6.52417 5.45112 6.56082 5.5089 6.60114L5.68515 6.71779L5.86087 6.84223C5.92046 6.88223 5.97899 6.92567 6.03783 6.96895C6.15643 7.05354 6.2724 7.14576 6.3904 7.23526C6.60187 7.40357 6.81496 7.57345 7.01833 7.75557C7.02768 7.80376 7.03705 7.85192 7.0468 7.9002C7.0578 7.96345 7.07649 8.02664 7.09218 8.09007C7.10834 8.15368 7.1251 8.21713 7.14246 8.28042L7.1788 8.4122C7.08087 8.40051 6.98227 8.39342 6.88524 8.3841L6.70765 8.36842C6.64899 8.36214 6.58905 8.36223 6.5303 8.35898C6.41233 8.35436 6.29577 8.34864 6.1803 8.34557C6.06421 8.34498 5.94893 8.34679 5.83552 8.34764L5.6663 8.35126L5.4983 8.36076C5.38708 8.36757 5.27746 8.37617 5.16977 8.38385C5.06143 8.39473 4.95471 8.40945 4.85015 8.42204C4.79783 8.42876 4.74605 8.4347 4.69474 8.44207C4.64337 8.4497 4.59218 8.45986 4.54171 8.46854C4.44269 8.48596 4.34386 8.50443 4.24524 8.52395C4.14862 8.54254 4.05368 8.56823 3.96155 8.59092C3.86927 8.61482 3.77952 8.63485 3.69215 8.66229C3.60474 8.6896 3.51977 8.71598 3.43758 8.74342C3.3554 8.77067 3.27565 8.79517 3.19896 8.82751C3.12221 8.85795 3.04802 8.88686 2.9769 8.91664L2.87212 8.95998C2.8378 8.97364 2.80465 8.99145 2.77199 9.00682C2.70677 9.0386 2.64421 9.06867 2.58477 9.09898L2.49765 9.14304C2.46915 9.15757 2.44221 9.17086 2.41408 9.18754C2.35871 9.21932 2.30637 9.24932 2.25746 9.27882C2.21127 9.30607 2.16546 9.33396 2.12005 9.36248C2.07765 9.3892 2.03649 9.4137 2.00602 9.43823C1.9409 9.4857 1.88687 9.52992 1.84237 9.56379C1.75402 9.63342 1.70774 9.67292 1.70774 9.67292C1.63849 9.73254 1.59271 9.81373 1.59008 9.91229C1.58521 10.098 1.73158 10.25 1.91702 10.25H1.91721C1.91721 10.25 1.97805 10.2588 2.09055 10.2574C2.14646 10.2557 2.2163 10.2597 2.2968 10.2556C2.33849 10.2524 2.37768 10.2576 2.4203 10.2596C2.46293 10.262 2.5074 10.2644 2.55396 10.2661C2.5999 10.2675 2.64833 10.2694 2.69908 10.2709C2.74949 10.2727 2.80705 10.2774 2.86374 10.2804C2.9789 10.2885 3.09927 10.2891 3.23074 10.3038C3.36158 10.3165 3.49693 10.3225 3.64183 10.3425C3.7139 10.3515 3.78715 10.359 3.86171 10.3669C3.89877 10.3698 3.93715 10.3775 3.97537 10.3826L4.09115 10.3991L4.20865 10.4158C4.24812 10.4211 4.28755 10.425 4.32808 10.433C4.40877 10.4475 4.49049 10.4617 4.57315 10.4747C4.61452 10.4818 4.65593 10.4874 4.69796 10.4957C4.74005 10.5047 4.7824 10.5124 4.82493 10.5208C4.91005 10.5371 4.99596 10.5546 5.08283 10.57C5.17008 10.5894 5.25808 10.6098 5.3469 10.6285L5.48071 10.6566L5.6159 10.6905C5.70646 10.7124 5.79768 10.7328 5.88949 10.7556C5.98133 10.7812 6.07405 10.8045 6.16712 10.829C6.26018 10.8523 6.35393 10.8796 6.44805 10.9067L6.58958 10.9471C6.63687 10.9604 6.68452 10.9724 6.73187 10.988C6.82683 11.0172 6.9219 11.0477 7.0178 11.0756C7.06583 11.0889 7.11365 11.1047 7.16146 11.1209L7.30521 11.1686C7.49843 11.2261 7.68927 11.3011 7.88337 11.3634C7.97946 11.3989 8.07502 11.4364 8.1718 11.4701C8.21996 11.4878 8.26865 11.5035 8.31637 11.5227L8.45968 11.5795C8.55512 11.6176 8.65237 11.6503 8.74687 11.6906L8.88893 11.7498L9.03162 11.8066C9.07943 11.8249 9.12627 11.8454 9.17296 11.8661L9.31318 11.9273C9.4069 11.9671 9.50111 12.0052 9.59286 12.0478C9.68493 12.0889 9.7774 12.129 9.87027 12.1682C9.96177 12.2093 10.0522 12.2516 10.1434 12.2912C10.1887 12.3115 10.2342 12.3312 10.28 12.3503L10.4139 12.4124C10.5025 12.4545 10.5926 12.4928 10.6813 12.5323C10.768 12.575 10.8558 12.6144 10.9426 12.6543C10.9862 12.6739 11.029 12.6945 11.0728 12.7131L11.2001 12.7739C11.2843 12.8149 11.3694 12.853 11.4535 12.8912C11.5351 12.9313 11.6171 12.9708 11.6994 13.0095C11.8643 13.0843 12.0193 13.1647 12.1754 13.2373C12.2537 13.2735 12.3284 13.3114 12.4026 13.3486C12.4769 13.3856 12.5516 13.4203 12.6243 13.4555L12.8356 13.5619L13.0416 13.662C13.1731 13.7302 13.3003 13.7945 13.4235 13.8534C13.536 13.9131 13.6495 13.971 13.7639 14.0271C13.8181 14.0534 13.8689 14.0799 13.9172 14.1058L14.0584 14.1783C14.2424 14.2674 14.3838 14.3444 14.487 14.3933C14.5377 14.4184 14.5782 14.4368 14.6056 14.4492C14.6327 14.4618 14.6475 14.4679 14.6475 14.4679L14.6631 14.4743C14.7162 14.496 14.7746 14.5015 14.8308 14.4901C14.8684 14.4825 14.904 14.4677 14.9358 14.4463C14.9676 14.425 14.9948 14.3976 15.016 14.3657C15.0372 14.3338 15.0519 14.2981 15.0593 14.2606C15.0667 14.223 15.0666 14.1843 15.059 14.1468Z" fill="#00B89C"/>
<path d="M15.6075 14.4385C15.6075 14.4385 15.5758 14.3772 15.5129 14.2651C15.4218 14.1042 15.3277 13.9451 15.2305 13.7878C15.1604 13.6767 15.0891 13.5665 15.0166 13.4571C14.9377 13.3374 14.8516 13.2087 14.7551 13.0746C14.706 13.0049 14.6563 12.9356 14.6061 12.8667C14.5546 12.7955 14.5017 12.7222 14.4456 12.6485C14.3882 12.5727 14.3302 12.4974 14.2716 12.4225C14.2106 12.3437 14.149 12.2654 14.0868 12.1875C13.959 12.0289 13.8217 11.8669 13.6793 11.6992C13.5352 11.5328 13.3813 11.3646 13.2235 11.1909C13.1582 11.1231 13.0921 11.054 13.0253 10.9846L12.981 10.8986C12.9582 10.8539 12.9345 10.8098 12.9108 10.7655C12.8879 10.7207 12.8616 10.6776 12.8419 10.631C12.8002 10.5389 12.7563 10.4478 12.7124 10.3561C12.666 10.2655 12.6305 10.1698 12.5898 10.0763L12.5297 9.93519L12.4995 9.86459L12.473 9.7925L12.3653 9.50425C12.2312 9.11594 12.1184 8.71862 12.0315 8.315C12.0133 8.21312 11.9933 8.11175 11.9738 8.01044C11.9627 7.96013 11.9563 7.90859 11.9495 7.85728L11.9263 7.70391C11.9191 7.65272 11.9092 7.60219 11.9039 7.55062L11.8885 7.39603C11.8768 7.29325 11.8621 7.19131 11.8575 7.0875C11.8507 6.98409 11.838 6.88191 11.833 6.77866C11.8292 6.67522 11.8217 6.57222 11.816 6.46962C11.8105 6.26313 11.7998 6.0585 11.8005 5.85362C11.7949 5.64972 11.8017 5.44587 11.8002 5.24528C11.8042 5.14472 11.8052 5.04463 11.8067 4.94547L11.8079 4.87128L11.8107 4.79716L11.8155 4.64981C11.819 4.4545 11.8309 4.26191 11.8355 4.07428L11.8482 3.79606C11.8506 3.75044 11.8515 3.70484 11.853 3.65975C11.8543 3.61462 11.8575 3.56988 11.8597 3.52553L11.8813 3.01109L11.8974 2.53875L11.9026 2.32088C11.9049 2.25056 11.9059 2.18228 11.907 2.11659L11.9093 1.75272C11.9086 1.64191 11.9073 1.54259 11.9044 1.45519C11.902 1.36794 11.9003 1.29366 11.8966 1.23259C11.894 1.17191 11.8904 1.12481 11.8881 1.09306C11.887 1.07693 11.8857 1.06083 11.884 1.04475L11.8837 1.04194C11.8779 0.991873 11.8579 0.944515 11.826 0.905472C11.7941 0.866428 11.7517 0.837333 11.7039 0.821631C11.656 0.805928 11.6046 0.804275 11.5558 0.816868C11.507 0.829461 11.4628 0.855772 11.4285 0.892688C11.4285 0.892688 11.4171 0.905 11.3964 0.929375C11.3755 0.953688 11.3446 0.989781 11.3062 1.03763C11.2282 1.13288 11.1179 1.27409 10.9877 1.45931L10.886 1.606C10.8519 1.65806 10.8152 1.71234 10.779 1.76966C10.7053 1.88391 10.6271 2.00825 10.5492 2.1445C10.5092 2.21219 10.47 2.28278 10.4288 2.35544C10.388 2.42834 10.3496 2.50488 10.3081 2.58291C10.2679 2.66144 10.2262 2.74159 10.1858 2.82534L10.0657 3.08394C10.0243 3.17436 9.98505 3.26568 9.94778 3.35784C9.91025 3.45209 9.86921 3.54747 9.83256 3.64641C9.76093 3.8455 9.68503 4.05106 9.62243 4.26953C9.55434 4.48572 9.49862 4.71412 9.44362 4.94841C9.41808 5.06799 9.39444 5.18798 9.37271 5.30831C9.34865 5.42944 9.33068 5.55416 9.31453 5.68C9.29818 5.80587 9.27846 5.93247 9.27068 6.06247L9.25509 6.25753C9.25034 6.32297 9.2435 6.38809 9.24271 6.45453C9.23971 6.58709 9.23503 6.72072 9.23412 6.85503L9.23368 6.90544L9.23525 6.95616L9.23856 7.05781C9.24106 7.12566 9.24259 7.19375 9.24609 7.26188C9.25025 7.39803 9.2654 7.53528 9.27821 7.67284L9.30046 7.87919C9.30825 7.94803 9.3209 8.01684 9.33106 8.08575C9.33306 8.09791 9.3349 8.11006 9.33684 8.12225C9.2659 8.08263 9.1945 8.04385 9.12265 8.00591L8.73737 7.8115C8.67346 7.77906 8.60734 7.74994 8.54171 7.72022L8.345 7.63144C8.27921 7.60234 8.21468 7.57156 8.14815 7.54416L7.94818 7.46384C7.41556 7.25213 6.87081 7.083 6.33043 6.97297C6.19637 6.94269 6.06146 6.91894 5.92781 6.89766C5.79415 6.87628 5.66271 6.85231 5.53018 6.84037L5.33371 6.81875C5.26862 6.81187 5.20424 6.80378 5.13949 6.80037C5.01009 6.793 4.88287 6.78441 4.75712 6.77984C4.2539 6.766 3.7799 6.78675 3.34921 6.84709C2.91828 6.90112 2.53109 6.98859 2.19468 7.08209C2.11037 7.10434 2.02978 7.13037 1.95215 7.15581C1.87745 7.17986 1.80302 7.20474 1.72887 7.23044L1.62446 7.26669L1.52346 7.30562C1.45768 7.33078 1.39553 7.357 1.33675 7.38066C1.09718 7.47581 0.935714 7.56787 0.818245 7.63084C0.773862 7.65487 0.729918 7.6797 0.686433 7.70531C0.656651 7.72244 0.64137 7.73222 0.64137 7.73222C0.560838 7.78383 0.500233 7.86127 0.469495 7.95184C0.394526 8.17262 0.512714 8.41238 0.733495 8.48734C0.733495 8.48734 0.750651 8.49319 0.783714 8.50263C0.816808 8.51247 0.865839 8.52669 0.929558 8.54319C1.05543 8.57772 1.24993 8.61909 1.46646 8.67866C1.52156 8.69213 1.5794 8.70753 1.63946 8.72141L1.73159 8.74359L1.82937 8.7685C1.96212 8.80369 2.10453 8.83313 2.25465 8.87191C2.5549 8.94822 2.88709 9.02684 3.23918 9.12328C3.59218 9.21319 3.96396 9.32509 4.34943 9.44072C4.44528 9.47287 4.54265 9.5015 4.64065 9.53178L4.93571 9.63006L5.01021 9.65466C5.03525 9.66225 5.06025 9.67009 5.08503 9.67941L5.23471 9.73278C5.33456 9.76966 5.43684 9.79931 5.53734 9.84028C5.94328 9.98575 6.35653 10.1516 6.77609 10.3293C6.88112 10.3731 6.987 10.4162 7.09206 10.4647L7.25034 10.5353C7.30318 10.5588 7.35628 10.5817 7.40853 10.6081L7.7259 10.7576C7.77881 10.783 7.83084 10.8113 7.88368 10.8373L8.04243 10.9159C8.14903 10.9663 8.25265 11.0257 8.35837 11.08L8.51681 11.162C8.56978 11.1888 8.62146 11.2195 8.67381 11.2481C8.7779 11.3068 8.88406 11.3613 8.98825 11.4197C9.09153 11.48 9.19545 11.5391 9.29996 11.5972C9.71318 11.8377 10.1237 12.0784 10.5197 12.3253C10.6186 12.3869 10.7181 12.4458 10.8153 12.5078C10.913 12.569 11.0091 12.6307 11.106 12.6895L11.6711 13.0454L11.9436 13.2197C12.0332 13.2771 12.1234 13.3311 12.2102 13.3876C12.3842 13.5 12.5544 13.6068 12.7188 13.7095C12.8 13.7622 12.8806 13.8127 12.9595 13.8622C13.0148 13.8972 13.0705 13.9318 13.1263 13.9661L13.1964 14.015C13.2343 14.0406 13.2735 14.0635 13.3112 14.0872C13.4705 14.1864 13.6311 14.2836 13.793 14.3785L13.813 14.3894L14.0071 14.5072C14.1169 14.5734 14.2273 14.6384 14.3385 14.7022C14.5397 14.8198 14.7003 14.9106 14.8117 14.9708C14.9232 15.031 14.9844 15.0616 14.9844 15.0616L14.9928 15.0658C15.0577 15.0978 15.1292 15.114 15.2015 15.1133C15.2739 15.1126 15.345 15.0948 15.4092 15.0615C15.6361 14.9442 15.7248 14.6652 15.6075 14.4385Z" fill="#009E83"/>
<path d="M12.9332 9.35653C12.8049 9.39397 12.6715 9.41095 12.5379 9.40684C12.4694 9.40472 12.4371 9.48994 12.4887 9.53491C12.5794 9.61384 12.6584 9.70521 12.7234 9.80631C12.7307 9.81723 12.7377 9.82821 12.7444 9.83925C13.1078 10.4427 12.6299 10.7562 12.0265 11.1196C11.423 11.4831 10.9225 11.7589 10.559 11.1555C10.5516 11.1433 10.5445 11.1309 10.5376 11.1184C10.5112 11.0709 10.4438 11.07 10.4133 11.115L10.4125 11.1161C10.4053 11.1272 10.398 11.1379 10.3904 11.1484C9.97758 11.7192 9.50199 11.4023 8.93114 10.9895C8.3603 10.5767 7.91039 10.2242 8.32324 9.65341C8.36929 9.58977 8.42111 9.5305 8.47802 9.47634C8.52258 9.434 8.49793 9.35894 8.43693 9.35141C8.37188 9.34336 8.30754 9.33033 8.24449 9.31244C8.23189 9.30914 8.21938 9.30552 8.20696 9.30159C7.53527 9.08916 7.68655 8.53803 7.89899 7.86634C8.11143 7.19466 8.30452 6.65675 8.97621 6.86919C9.0622 6.89633 9.14506 6.93255 9.22339 6.97722C9.27802 7.00837 9.34308 6.95938 9.32999 6.89784C9.31406 6.82282 9.3049 6.74651 9.30261 6.66984C9.30195 6.65672 9.30161 6.6437 9.30161 6.63078C9.30161 5.92631 9.87271 5.90438 10.5772 5.90438C11.2816 5.90438 11.8527 5.92631 11.8527 6.63078C11.8527 6.74359 11.8381 6.85294 11.8105 6.95709C11.7937 7.02084 11.8616 7.07322 11.9181 7.03925C12.0017 6.98912 12.0906 6.94869 12.1833 6.91872C12.1957 6.91443 12.2082 6.91047 12.2206 6.90684C12.897 6.71006 13.0776 7.25231 13.2743 7.92875C13.4712 8.60528 13.6096 9.15975 12.9332 9.35653ZM9.49339 3.25091C9.32624 2.67631 9.17286 2.21569 8.59824 2.38284C8.58772 2.38593 8.57718 2.38928 8.56661 2.39291C8.48788 2.41835 8.41231 2.4527 8.34136 2.49528C8.29333 2.52416 8.23561 2.47966 8.24993 2.4255C8.27378 2.33504 8.28583 2.24187 8.28577 2.14831C8.28577 1.54988 7.80064 1.53125 7.20224 1.53125C6.60383 1.53125 6.11871 1.54988 6.11871 2.14831C6.11871 2.15929 6.11899 2.17035 6.11955 2.1815C6.12152 2.24662 6.1293 2.31143 6.1428 2.37516C6.15393 2.42741 6.09864 2.46903 6.05224 2.44256C5.9857 2.40463 5.91531 2.37387 5.84227 2.35081C5.27171 2.17037 5.10764 2.62728 4.92721 3.19784C4.74677 3.76841 4.61824 4.23656 5.1888 4.41703C5.19924 4.42032 5.20986 4.42339 5.22068 4.42622C5.27505 4.44163 5.32964 4.45259 5.38414 4.45931C5.43596 4.46572 5.45689 4.5295 5.41905 4.56544C5.37067 4.61141 5.32665 4.66176 5.28755 4.71584C4.93686 5.20075 5.31905 5.50012 5.80396 5.85081C6.28886 6.2015 6.69286 6.47069 7.04355 5.98578C7.05027 5.9765 7.05674 5.96705 7.06296 5.95744C7.08886 5.91916 7.14611 5.91991 7.16855 5.96034C7.17438 5.97089 7.18045 5.98138 7.18674 5.99181C7.49549 6.50444 7.92068 6.27013 8.4333 5.96138C8.94593 5.65263 9.35189 5.38638 9.04314 4.87375C9.03748 4.86438 9.03153 4.85504 9.0253 4.84575C8.97008 4.75987 8.90298 4.68225 8.82599 4.61519C8.78208 4.57697 8.80955 4.50459 8.86774 4.50641C8.97839 4.50984 9.09146 4.49625 9.20352 4.46366C9.77814 4.29653 9.66052 3.8255 9.49339 3.25091Z" fill="#FF929D"/>
<path d="M12.0116 8.41911L12.0097 8.42576C12.0084 8.43032 12.0064 8.43664 12.0036 8.44423L11.9932 8.47295C11.9889 8.48335 11.9841 8.49592 11.9781 8.50857C11.9722 8.52132 11.9658 8.53557 11.9582 8.5496C11.9509 8.56439 11.9425 8.57892 11.9334 8.59432C11.9142 8.62709 11.8927 8.65847 11.8691 8.68823C11.8197 8.75067 11.7571 8.81014 11.6841 8.85735C11.6476 8.8811 11.6083 8.90129 11.5674 8.91914C11.5262 8.93735 11.4843 8.95405 11.4419 8.9692C11.4071 8.98145 11.3719 8.99256 11.3364 9.00251C11.3561 9.03351 11.3752 9.06507 11.393 9.09754C11.4146 9.13707 11.4348 9.17738 11.4534 9.21839C11.4721 9.25892 11.488 9.30014 11.4995 9.34214C11.5227 9.42601 11.5298 9.51204 11.5252 9.59154C11.5231 9.62946 11.5182 9.66718 11.5108 9.70442C11.5073 9.72192 11.5039 9.73839 11.4996 9.75429C11.4959 9.76979 11.4912 9.78473 11.4872 9.79817C11.4832 9.81154 11.4784 9.82414 11.4748 9.83482L11.4634 9.8631C11.4611 9.86917 11.4585 9.87514 11.4556 9.88098L11.4527 9.88729C11.3831 10.0358 11.2254 10.1148 11.0711 10.092L11.0642 10.091C11.0578 10.0901 11.0514 10.089 11.0451 10.0875L11.0152 10.0814C11.0043 10.0785 10.9912 10.0755 10.9778 10.0715C10.9644 10.0674 10.9494 10.0631 10.9344 10.0576C10.9187 10.0524 10.9031 10.0461 10.8866 10.0394C10.8515 10.025 10.8174 10.0081 10.7846 9.98898C10.7158 9.94885 10.6481 9.89529 10.5911 9.8296C10.5624 9.79685 10.5368 9.76079 10.5134 9.72279C10.5068 9.71223 10.5005 9.70132 10.4941 9.69051C10.4859 9.70004 10.4779 9.70976 10.4696 9.71904C10.4401 9.75251 10.4088 9.78373 10.375 9.8112C10.3076 9.86629 10.2319 9.90764 10.1573 9.93557C10.1218 9.94891 10.0853 9.95974 10.0482 9.96798C10.0308 9.97189 10.0144 9.97545 9.99809 9.97785C9.98243 9.98076 9.96687 9.98254 9.95293 9.98423C9.93909 9.98598 9.92565 9.98673 9.9144 9.9877L9.8839 9.9887C9.87577 9.9891 9.86918 9.98911 9.86443 9.98889L9.85746 9.98873C9.69355 9.9851 9.55743 9.87276 9.51593 9.72245L9.51409 9.71573C9.51228 9.7095 9.51076 9.70319 9.50952 9.69682L9.50305 9.66701C9.50127 9.65585 9.49871 9.64267 9.49702 9.62879C9.49527 9.61489 9.49321 9.59936 9.49221 9.58345C9.49072 9.56648 9.48983 9.54945 9.48955 9.53242C9.48851 9.49445 9.49013 9.45647 9.4944 9.41873C9.5033 9.3396 9.52493 9.25601 9.56193 9.17726C9.5803 9.13779 9.60296 9.09985 9.62824 9.06307C9.63521 9.05273 9.64268 9.04257 9.64993 9.03235C9.6379 9.02876 9.62577 9.02536 9.61393 9.02148C9.57137 9.00801 9.53018 8.99204 9.49143 8.97223C9.4138 8.93292 9.34537 8.88029 9.28968 8.82339C9.2631 8.79626 9.23846 8.7673 9.21593 8.73673C9.20534 8.72236 9.19543 8.70879 9.18662 8.69485C9.17762 8.6817 9.16971 8.6682 9.16252 8.65614C9.15534 8.64417 9.14921 8.6322 9.14377 8.62229L9.13052 8.59482C9.12758 8.58904 9.12491 8.58313 9.12249 8.57711L9.11984 8.57067C9.0569 8.41926 9.10462 8.24939 9.22534 8.15067L9.23071 8.14626C9.2343 8.14317 9.23952 8.1391 9.24618 8.13442L9.27084 8.11645C9.2803 8.11029 9.29134 8.10264 9.30337 8.09548C9.3154 8.08826 9.32874 8.08007 9.3429 8.07273C9.35724 8.0646 9.37237 8.05732 9.38852 8.04967C9.42282 8.03336 9.45822 8.01949 9.49446 8.00814C9.57046 7.98429 9.65562 7.97026 9.74262 7.97229C9.78615 7.97314 9.82999 7.97854 9.87387 7.98679C9.9158 7.99429 9.9579 8.00386 9.99977 8.01448L9.9994 8.00914C9.99731 7.96412 9.99691 7.91905 9.99818 7.87401C9.99918 7.82939 10.003 7.78539 10.0111 7.7426C10.0271 7.65707 10.0585 7.57664 10.0975 7.50723C10.1161 7.47412 10.137 7.44235 10.1601 7.41217C10.1709 7.39795 10.1811 7.38467 10.1921 7.37229C10.2021 7.35998 10.2129 7.3486 10.2225 7.33832C10.2319 7.32807 10.2417 7.31885 10.2497 7.31085L10.2723 7.29045C10.2771 7.286 10.282 7.28177 10.2871 7.27776L10.2925 7.27339C10.4202 7.17057 10.5967 7.16879 10.7253 7.25701L10.731 7.26095C10.735 7.26354 10.7403 7.26742 10.7467 7.27248L10.7708 7.2911C10.7794 7.29848 10.7898 7.30692 10.8001 7.31645C10.8104 7.32598 10.822 7.33651 10.833 7.34801C10.8448 7.35951 10.856 7.37201 10.8679 7.38535C10.8917 7.41204 10.9154 7.44229 10.9374 7.47542C10.9816 7.54167 11.0189 7.61954 11.0413 7.7036C11.0527 7.74564 11.0598 7.78923 11.0641 7.83367C11.0685 7.87565 11.0714 7.91777 11.0727 7.95995C11.1149 7.94415 11.1576 7.9299 11.2007 7.91723C11.2435 7.90445 11.2866 7.89451 11.3297 7.8891C11.4161 7.87801 11.5022 7.88304 11.5803 7.89882C11.6193 7.90667 11.6562 7.91707 11.69 7.92904C11.7068 7.93495 11.7226 7.94064 11.7377 7.9472C11.7526 7.95301 11.7667 7.95976 11.7794 7.96567C11.7921 7.97151 11.8039 7.97798 11.814 7.9831L11.8404 7.99839C11.8475 8.00235 11.8531 8.00586 11.857 8.00854L11.8628 8.01235C12 8.10229 12.056 8.26964 12.0116 8.41911ZM8.2943 3.32192L8.28937 3.31867C8.28479 3.31559 8.28008 3.31271 8.27524 3.31004L8.25284 3.29707C8.24427 3.29273 8.23427 3.28723 8.22349 3.28226C8.21268 3.27723 8.20068 3.27151 8.18809 3.26657C8.17475 3.26093 8.16121 3.25579 8.14749 3.25114C8.11707 3.2404 8.08593 3.23181 8.0543 3.22545C7.98428 3.21118 7.91241 3.2084 7.84149 3.2172C7.80437 3.22216 7.76772 3.23014 7.7319 3.24107C7.69522 3.25183 7.65894 3.26393 7.62315 3.27735C7.62198 3.24152 7.61955 3.20574 7.61587 3.17007C7.61246 3.13278 7.60597 3.09583 7.59646 3.0596C7.57743 2.9882 7.54571 2.92207 7.50821 2.86576C7.49034 2.83891 7.47061 2.81334 7.44915 2.78926C7.43965 2.77833 7.42976 2.76775 7.41949 2.75754C7.41015 2.74776 7.4003 2.73879 7.39155 2.73073C7.38287 2.72264 7.37399 2.71548 7.36671 2.7092L7.34621 2.69335C7.34192 2.6899 7.33748 2.68664 7.3329 2.68357L7.32802 2.68023C7.2188 2.60529 7.0689 2.60679 6.96043 2.69414L6.95584 2.69785C6.95265 2.70029 6.94834 2.70392 6.94327 2.70864L6.92402 2.72598C6.91724 2.73276 6.90893 2.7406 6.9009 2.74932C6.89277 2.75804 6.88365 2.7677 6.87505 2.77817C6.8658 2.78867 6.85705 2.79995 6.84787 2.81204C6.82829 2.83768 6.81053 2.86466 6.79474 2.89279C6.76159 2.95176 6.73496 3.02007 6.72137 3.09273C6.71466 3.12958 6.71097 3.16691 6.71034 3.20435C6.70927 3.24262 6.70962 3.2809 6.71137 3.31914C6.71143 3.32067 6.71162 3.32217 6.71168 3.32367C6.67633 3.31455 6.64066 3.3067 6.60474 3.30014C6.56798 3.29295 6.53069 3.28883 6.49324 3.28782C6.4218 3.28648 6.35061 3.29676 6.28246 3.31826C6.25167 3.3279 6.2216 3.33968 6.19246 3.35354C6.17874 3.36004 6.1659 3.36623 6.15371 3.37314C6.14168 3.37939 6.13034 3.38632 6.12015 3.39245C6.10996 3.39851 6.10059 3.40504 6.09252 3.41026L6.07159 3.42551C6.06706 3.42867 6.06269 3.43203 6.05846 3.43557L6.0539 3.43932C5.95137 3.52317 5.9108 3.66751 5.96427 3.7961L5.96655 3.80157C5.96802 3.80532 5.97027 3.81045 5.97337 3.81664L5.98462 3.83998C5.98924 3.84839 5.99443 3.85857 6.00055 3.86873C6.00665 3.87898 6.01337 3.89045 6.02102 3.9016C6.02849 3.91342 6.0369 3.92498 6.04593 3.93717C6.06506 3.96315 6.086 3.98775 6.10859 4.01079C6.15848 4.06195 6.21636 4.10465 6.27996 4.13723C6.3129 4.15407 6.3479 4.16764 6.38402 4.17907C6.39409 4.18235 6.4044 4.18526 6.41462 4.18832C6.40843 4.19701 6.40212 4.20564 6.39618 4.21442C6.37471 4.24567 6.35546 4.27789 6.33987 4.31142C6.30976 4.37622 6.29038 4.44549 6.28249 4.51651C6.27885 4.54856 6.27747 4.58083 6.27837 4.61307C6.27877 4.62823 6.27924 4.64251 6.28062 4.65645C6.28146 4.66995 6.28321 4.68314 6.28471 4.69498C6.28615 4.70676 6.2883 4.71798 6.28984 4.72745L6.29534 4.75276C6.29673 4.75957 6.29802 4.76493 6.29921 4.76882L6.30077 4.77451C6.33602 4.9022 6.45165 4.9976 6.59087 5.0007L6.59677 5.00082C6.60084 5.00103 6.60635 5.00098 6.6133 5.00067L6.63921 4.99982C6.64877 4.99898 6.66018 4.99835 6.67193 4.99689C6.68377 4.99545 6.69696 4.99395 6.71027 4.99148C6.72412 4.98942 6.73805 4.98639 6.75287 4.98307C6.78436 4.97608 6.81532 4.96688 6.84552 4.95554C6.91249 4.93058 6.97495 4.89489 7.03046 4.84989C7.05918 4.82657 7.08571 4.80004 7.1108 4.7716C7.11787 4.76373 7.12471 4.75548 7.13162 4.74735C7.13705 4.75651 7.1424 4.76579 7.14802 4.77476C7.16793 4.80701 7.18962 4.83767 7.21399 4.86548C7.26246 4.92129 7.31996 4.96676 7.3784 5.00085C7.40624 5.01714 7.4352 5.03145 7.46505 5.04367C7.47909 5.04945 7.49234 5.05476 7.50562 5.05914C7.5183 5.06382 7.53109 5.06754 7.54249 5.07095C7.55384 5.07442 7.56496 5.07695 7.57424 5.07939L7.59962 5.0846C7.60637 5.0861 7.6119 5.08704 7.6159 5.08754L7.62174 5.08842C7.75277 5.10779 7.8868 5.0406 7.9459 4.91451L7.9484 4.90917C7.95018 4.90557 7.95246 4.90042 7.95493 4.89398L7.96462 4.86995C7.96771 4.86089 7.97174 4.8502 7.97515 4.83882C7.97862 4.82742 7.98259 4.81473 7.98568 4.80154C7.9894 4.78804 7.99227 4.77407 7.99521 4.7592C8.00124 4.72939 8.00555 4.69707 8.00746 4.66332C8.01137 4.59579 8.00527 4.5227 7.98559 4.45148C7.97547 4.41542 7.96238 4.38026 7.94646 4.34635C7.93061 4.31152 7.91348 4.27728 7.89512 4.2437C7.87997 4.21628 7.86393 4.18935 7.84702 4.16298C7.8772 4.15453 7.90709 4.1451 7.93665 4.1347C7.9727 4.12183 8.00826 4.10765 8.04327 4.09217C8.07771 4.07743 8.11086 4.05987 8.1424 4.03967C8.20449 3.99957 8.25765 3.94904 8.29965 3.89601C8.31969 3.87074 8.33794 3.84409 8.35424 3.81626C8.36193 3.8032 8.36909 3.79082 8.37527 3.77829C8.38171 3.76639 8.38718 3.75426 8.39218 3.74345C8.39721 3.7327 8.4013 3.72204 8.40502 3.7132L8.41377 3.68882C8.41574 3.68367 8.41748 3.67844 8.41899 3.67314L8.42068 3.66748C8.4584 3.54039 8.4108 3.39823 8.2943 3.32192Z" fill="#FF473E"/>
<path d="M11.0889 8.69791C11.0889 8.98022 10.8601 9.20906 10.5778 9.20906C10.2955 9.20906 10.0666 8.98022 10.0666 8.69791C10.0666 8.41559 10.2955 8.18675 10.5778 8.18675C10.8601 8.18675 11.0889 8.41563 11.0889 8.69791ZM7.20273 3.47C6.96291 3.47 6.76854 3.66441 6.76854 3.90419C6.76854 4.14397 6.96295 4.33838 7.20273 4.33838C7.44254 4.33838 7.63691 4.14397 7.63691 3.90419C7.63691 3.66441 7.44251 3.47 7.20273 3.47ZM7.27607 8.91963C7.07929 8.24319 6.89873 7.70094 6.22229 7.89772C6.20989 7.90132 6.19748 7.90528 6.18504 7.90959C6.09236 7.93956 6.0034 7.98 5.91988 8.03013C5.86335 8.06409 5.79538 8.01175 5.81223 7.94797C5.84033 7.84148 5.85452 7.7318 5.85444 7.62166C5.85444 6.91719 5.28335 6.89525 4.57888 6.89525C3.87441 6.89525 3.30332 6.91719 3.30332 7.62166C3.30332 7.63455 3.30365 7.64757 3.30432 7.66072C3.30666 7.73869 3.31598 7.81488 3.3317 7.88872C3.34479 7.95022 3.27973 7.99925 3.2251 7.96809C3.14674 7.92349 3.06388 7.88728 2.97791 7.86006C2.30623 7.64763 2.1131 8.18553 1.9007 8.85722C1.68826 9.52891 1.53698 10.08 2.20866 10.2925C2.22096 10.2963 2.23347 10.3 2.2462 10.3033C2.3102 10.3214 2.37451 10.3344 2.43863 10.3423C2.49963 10.3498 2.52429 10.4249 2.47973 10.4672C2.42277 10.5213 2.37096 10.5806 2.32495 10.6443C1.9121 11.2151 2.36201 11.5676 2.93285 11.9804C3.5037 12.3932 3.97932 12.7101 4.39213 12.1393C4.39967 12.1288 4.40704 12.118 4.41423 12.107L4.41498 12.1059C4.44548 12.0608 4.51288 12.0618 4.53929 12.1093C4.54618 12.1217 4.55332 12.1341 4.56069 12.1463C4.92416 12.7498 5.42469 12.474 6.02816 12.1105C6.63163 11.747 7.10954 11.4336 6.74607 10.8301C6.73933 10.819 6.73233 10.808 6.72507 10.7972C6.66008 10.6961 6.58108 10.6047 6.49045 10.5258C6.43876 10.4808 6.47107 10.3956 6.53957 10.3977C6.66985 10.4018 6.80295 10.3858 6.93488 10.3474C7.61129 10.1505 7.47282 9.59606 7.27607 8.91963Z" fill="#FFB636"/>
<path d="M4.57891 10.3889C4.95706 10.3889 5.2636 10.0823 5.2636 9.70419C5.2636 9.32605 4.95706 9.0195 4.57891 9.0195C4.20077 9.0195 3.89423 9.32605 3.89423 9.70419C3.89423 10.0823 4.20077 10.3889 4.57891 10.3889Z" fill="#F8BBC6"/>
<path d="M5.86453 9.0032L5.85872 8.99939C5.85333 8.99576 5.84779 8.99237 5.8421 8.98923L5.81569 8.97395C5.80563 8.96883 5.79385 8.96236 5.78116 8.95651C5.76844 8.95058 5.75431 8.94386 5.73947 8.93804C5.72435 8.93148 5.70853 8.92579 5.69169 8.91989C5.65588 8.90726 5.61923 8.89717 5.582 8.88967C5.50394 8.87389 5.41775 8.86886 5.33147 8.87995C5.28825 8.88536 5.24522 8.8953 5.20244 8.90808C5.15926 8.92075 5.11655 8.935 5.07441 8.95079C5.07305 8.90861 5.0702 8.86649 5.06585 8.82451C5.06147 8.78011 5.05438 8.73648 5.043 8.69445C5.0206 8.61039 4.98328 8.53255 4.9391 8.46626C4.91805 8.43466 4.89482 8.40456 4.86956 8.3762C4.85838 8.36334 4.84673 8.35089 4.83466 8.33886C4.82366 8.32733 4.81206 8.31679 4.80175 8.30729C4.79153 8.29776 4.78106 8.28933 4.77253 8.28195L4.74838 8.26333C4.74332 8.25925 4.73809 8.2554 4.73269 8.25179L4.72697 8.24786C4.59841 8.15964 4.42194 8.16139 4.29422 8.26423L4.28881 8.26861C4.28506 8.27148 4.28 8.27576 4.27403 8.28129L4.25138 8.3017C4.24341 8.3097 4.23363 8.31892 4.22416 8.32917C4.2146 8.33945 4.20385 8.35083 4.19375 8.36314C4.18285 8.37548 4.17256 8.38879 4.16175 8.40301C4.13871 8.4332 4.11782 8.46497 4.09922 8.49808C4.06019 8.56748 4.02885 8.64792 4.01285 8.73345C4.00469 8.77623 4.00088 8.82023 3.99988 8.86486C3.9986 8.9099 3.99901 8.95497 4.0011 8.99998L4.00147 9.00533C3.95984 8.99461 3.91785 8.98537 3.87556 8.97764C3.83169 8.96939 3.78785 8.96401 3.74431 8.96314C3.65731 8.96111 3.57216 8.97511 3.49616 8.99898C3.45819 9.01086 3.42253 9.02504 3.39022 9.04051C3.3741 9.04817 3.35894 9.05545 3.3446 9.06358C3.33044 9.07092 3.3171 9.07908 3.30506 9.08633C3.29306 9.09345 3.28203 9.10114 3.27253 9.1073L3.24788 9.12526C3.24122 9.12995 3.23603 9.13401 3.23241 9.13711L3.22703 9.14151C3.10631 9.24023 3.0586 9.41014 3.12153 9.56151L3.12419 9.56795C3.12591 9.57236 3.12856 9.57842 3.13222 9.58567L3.14547 9.61314C3.15091 9.62304 3.15703 9.63501 3.16422 9.64698C3.17141 9.65904 3.17931 9.67254 3.18831 9.6857C3.19713 9.69964 3.207 9.7132 3.21763 9.72758C3.24015 9.75815 3.2648 9.78711 3.29138 9.81423C3.34706 9.87117 3.41553 9.92376 3.49313 9.96308C3.53191 9.98289 3.5731 9.99886 3.61563 10.0123C3.62747 10.0162 3.6396 10.0196 3.65163 10.0232C3.64435 10.0334 3.63691 10.0436 3.62994 10.0539C3.60466 10.0907 3.582 10.1286 3.56363 10.1681C3.5266 10.2469 3.505 10.3304 3.4961 10.4096C3.49183 10.4473 3.49021 10.4853 3.49125 10.5233C3.49172 10.5411 3.49228 10.5579 3.49391 10.5743C3.49491 10.5902 3.49697 10.6057 3.49872 10.6196C3.50041 10.6335 3.50294 10.6467 3.50475 10.6579L3.51122 10.6877C3.51281 10.6956 3.51444 10.702 3.51578 10.7066L3.51763 10.7133C3.55913 10.8636 3.69522 10.976 3.85916 10.9796L3.86613 10.9798C3.87085 10.98 3.87747 10.98 3.8856 10.9796L3.9161 10.9786C3.92735 10.9776 3.94078 10.9769 3.95463 10.9751C3.96856 10.9734 3.9841 10.9716 3.99978 10.9687C4.01661 10.966 4.03334 10.9627 4.04994 10.9589C4.08701 10.9506 4.12345 10.9398 4.159 10.9265C4.2336 10.8985 4.30938 10.8572 4.37669 10.8021C4.4105 10.7746 4.44175 10.7434 4.47125 10.7099C4.4796 10.7006 4.4876 10.6909 4.49575 10.6814C4.50216 10.6922 4.50844 10.7031 4.51506 10.7137C4.5385 10.7516 4.56403 10.7877 4.59272 10.8205C4.64978 10.8862 4.71747 10.9397 4.78628 10.9799C4.82066 11 4.85513 11.0167 4.88831 11.0302C4.90485 11.037 4.92041 11.0433 4.93606 11.0485C4.951 11.054 4.96603 11.0584 4.97947 11.0624C4.99281 11.0664 5.00594 11.0694 5.01685 11.0723L5.04672 11.0784C5.05466 11.0802 5.06119 11.0813 5.06588 11.0819L5.07275 11.0829C5.227 11.1057 5.38478 11.0266 5.45435 10.8782L5.45728 10.8719C5.45938 10.8676 5.46206 10.8616 5.465 10.854L5.47641 10.8257C5.48006 10.815 5.48481 10.8024 5.48881 10.789C5.49288 10.7756 5.49756 10.7607 5.50122 10.7452C5.5056 10.7293 5.50897 10.7128 5.51244 10.6953C5.51953 10.6602 5.5246 10.6222 5.52688 10.5824C5.53147 10.5029 5.52428 10.4169 5.50113 10.333C5.48969 10.291 5.47375 10.2498 5.45506 10.2093C5.4364 10.1683 5.41624 10.1279 5.39463 10.0884C5.3768 10.0561 5.35791 10.0244 5.338 9.99339C5.37352 9.98344 5.40871 9.97233 5.4435 9.96008C5.48593 9.94493 5.52779 9.92823 5.569 9.91001C5.60991 9.89217 5.64922 9.87198 5.68569 9.84823C5.75878 9.80101 5.82135 9.74154 5.87078 9.67911C5.89442 9.64938 5.9159 9.618 5.93506 9.5852C5.94413 9.5698 5.95253 9.55526 5.95985 9.54048C5.96741 9.52645 5.97388 9.5122 5.97975 9.49945C5.98566 9.48679 5.99047 9.47426 5.99488 9.46383L6.00519 9.43511C6.00806 9.42751 6.01006 9.4212 6.01131 9.41664L6.01328 9.40998C6.05769 9.26042 6.00166 9.09308 5.86453 9.0032Z" fill="#FFD469"/>
<path d="M4.57952 10.1998C4.86182 10.1998 5.09067 9.97098 5.09067 9.68868C5.09067 9.40637 4.86182 9.17752 4.57952 9.17752C4.29721 9.17752 4.06836 9.40637 4.06836 9.68868C4.06836 9.97098 4.29721 10.1998 4.57952 10.1998Z" fill="#FFB636"/>
</g>
<defs>
<clipPath id="clip0_4197_343">
<rect width="16" height="16" fill="white"/>
</clipPath>
</defs>
</svg>
