<svg width="16" height="16" viewBox="0 0 16 16" fill="none" xmlns="http://www.w3.org/2000/svg">
<g clip-path="url(#clip0_4199_305)">
<path d="M6.3909 0.132537C6.81692 0.381382 7.11989 0.714477 7.25486 1.17963C7.30103 1.40148 7.29615 1.62725 7.29877 1.85274C7.30027 1.93281 7.30027 1.93281 7.3018 2.01451C7.30487 2.18407 7.30727 2.35364 7.30965 2.52321C7.31163 2.63857 7.31364 2.75393 7.3157 2.86928C7.32064 3.15124 7.32504 3.43319 7.32901 3.71516C7.36038 3.69448 7.39176 3.6738 7.42408 3.6525C7.46551 3.62552 7.50695 3.59854 7.54964 3.57074C7.61107 3.53053 7.61107 3.53053 7.67374 3.4895C8.07669 3.2488 8.62765 3.25413 9.07941 3.35119C9.53607 3.50927 9.86498 3.81886 10.1161 4.21052C10.1161 4.25956 10.1161 4.3086 10.1161 4.35912C10.1448 4.33939 10.1736 4.31966 10.2032 4.29933C10.7379 3.94304 11.1719 3.85698 11.8193 3.9133C12.1356 3.9892 12.3773 4.13426 12.6451 4.30959C12.6439 4.25271 12.6439 4.25271 12.6427 4.19467C12.6394 4.02039 12.6374 3.84612 12.6355 3.67182C12.6342 3.61218 12.6329 3.55254 12.6315 3.49109C12.6271 2.9641 12.6945 2.54357 13.0534 2.13215C13.4124 1.79537 13.8388 1.63569 14.3355 1.61609C14.8764 1.62839 15.2465 1.80566 15.6334 2.16408C15.8743 2.41848 16.0063 2.67817 16.0065 3.02438C16.0067 3.064 16.0068 3.10363 16.007 3.14445C16.0068 3.20911 16.0068 3.20911 16.0067 3.27507C16.0068 3.34379 16.0068 3.34379 16.0069 3.41391C16.0072 3.56657 16.007 3.71923 16.0068 3.87189C16.0069 3.98007 16.0069 4.08824 16.007 4.19642C16.0071 4.42505 16.0069 4.65367 16.0067 4.88229C16.0064 5.16723 16.0066 5.45216 16.0069 5.73709C16.0079 6.86447 16.0042 7.99192 15.9859 9.11919C15.9843 9.22432 15.9829 9.32946 15.9817 9.4346C15.965 10.8859 15.6507 12.2415 14.658 13.3746C14.6306 13.3955 14.6031 13.4164 14.5748 13.438C14.4698 13.563 14.4881 13.6561 14.4935 13.8146C14.4947 13.8725 14.4959 13.9303 14.4972 13.9899C14.5011 14.1111 14.5052 14.2322 14.5092 14.3533C14.5187 14.8151 14.4696 15.2022 14.1681 15.5756C13.8348 15.9079 13.4146 16.003 12.9479 16.0129C12.8226 16.0136 12.6973 16.0138 12.572 16.0136C12.5026 16.0138 12.4332 16.0141 12.3638 16.0144C12.1763 16.015 11.9888 16.0151 11.8014 16.0149C11.6444 16.0149 11.4874 16.0151 11.3304 16.0154C10.9598 16.0159 10.5892 16.0159 10.2186 16.0156C9.83735 16.0153 9.4561 16.0159 9.07485 16.017C8.74653 16.0179 8.41821 16.0182 8.08989 16.018C7.89423 16.0179 7.69859 16.018 7.50293 16.0187C7.31881 16.0194 7.13471 16.0193 6.95059 16.0186C6.85158 16.0184 6.75256 16.019 6.65355 16.0196C6.09255 16.0163 5.63 15.9341 5.21288 15.5542C4.81605 15.0831 4.89865 14.5711 4.92992 13.9979C4.94827 13.6639 4.94827 13.6639 4.82832 13.3607C4.73726 13.2752 4.6426 13.2016 4.54191 13.1269C3.89276 12.315 3.85274 11.4341 3.87094 10.452C3.83009 10.441 3.78924 10.4299 3.74715 10.4185C3.50524 10.3332 3.28914 10.2164 3.06449 10.096C2.72664 9.91635 2.38808 9.73852 2.04615 9.56617C1.98157 9.53348 1.91699 9.50079 1.85242 9.4681C1.75792 9.42026 1.66337 9.37255 1.56855 9.32531C0.997303 9.04047 0.257105 8.65708 0.0229602 8.03269C-0.0778074 7.56355 -0.0205092 7.17655 0.224775 6.76141C0.45023 6.43298 0.763302 6.18773 1.17112 6.1054C1.66298 6.05369 2.05964 6.17844 2.4903 6.39318C2.5372 6.41562 2.58411 6.43807 2.63244 6.46119C2.72836 6.50723 2.82407 6.55369 2.91954 6.6006C3.12235 6.69982 3.32589 6.79761 3.52956 6.8952C3.56751 6.9134 3.60546 6.93159 3.64456 6.95034C3.73722 6.99477 3.82989 7.03918 3.92256 7.08358C3.92237 7.05366 3.92218 7.02374 3.92198 6.99291C3.91741 6.26311 3.914 5.53332 3.91186 4.80351C3.9108 4.45058 3.90935 4.09765 3.90698 3.74472C3.90492 3.43692 3.90359 3.12913 3.90313 2.82133C3.90286 2.65851 3.90213 2.49571 3.90073 2.3329C3.89922 2.15066 3.89902 1.96845 3.89912 1.7862C3.89838 1.73286 3.89763 1.67952 3.89687 1.62456C3.89947 1.16333 4.01729 0.765294 4.35078 0.422591C4.89496 -0.0469799 5.72336 -0.174341 6.3909 0.132537Z" fill="#FDFBE0"/>
<path d="M6.3909 0.132537C6.81692 0.381382 7.11989 0.714477 7.25486 1.17963C7.30103 1.40148 7.29615 1.62725 7.29877 1.85274C7.30027 1.93281 7.30027 1.93281 7.3018 2.01451C7.30487 2.18407 7.30727 2.35364 7.30965 2.52321C7.31163 2.63857 7.31364 2.75393 7.3157 2.86928C7.32064 3.15124 7.32504 3.43319 7.32901 3.71516C7.36038 3.69448 7.39176 3.6738 7.42408 3.6525C7.46551 3.62552 7.50695 3.59854 7.54964 3.57074C7.61107 3.53053 7.61107 3.53053 7.67374 3.4895C8.07669 3.2488 8.62765 3.25413 9.07941 3.35119C9.53607 3.50927 9.86498 3.81886 10.1161 4.21052C10.1161 4.25956 10.1161 4.3086 10.1161 4.35912C10.1448 4.33939 10.1736 4.31966 10.2032 4.29933C10.7379 3.94304 11.1719 3.85698 11.8193 3.9133C12.1356 3.9892 12.3773 4.13426 12.6451 4.30959C12.6439 4.25271 12.6439 4.25271 12.6427 4.19467C12.6394 4.02039 12.6374 3.84612 12.6355 3.67182C12.6342 3.61218 12.6329 3.55254 12.6315 3.49109C12.6271 2.9641 12.6945 2.54357 13.0534 2.13215C13.4124 1.79537 13.8388 1.63569 14.3355 1.61609C14.8764 1.62839 15.2465 1.80566 15.6334 2.16408C15.8743 2.41848 16.0063 2.67817 16.0065 3.02438C16.0067 3.064 16.0068 3.10363 16.007 3.14445C16.0068 3.20911 16.0068 3.20911 16.0067 3.27507C16.0068 3.34379 16.0068 3.34379 16.0069 3.41391C16.0072 3.56657 16.007 3.71923 16.0068 3.87189C16.0069 3.98007 16.0069 4.08824 16.007 4.19642C16.0071 4.42505 16.0069 4.65367 16.0067 4.88229C16.0064 5.16723 16.0066 5.45216 16.0069 5.73709C16.0079 6.86447 16.0042 7.99192 15.9859 9.11919C15.9843 9.22432 15.9829 9.32946 15.9817 9.4346C15.965 10.8859 15.6507 12.2415 14.658 13.3746C14.6306 13.3955 14.6031 13.4164 14.5748 13.438C14.4698 13.563 14.4881 13.6561 14.4935 13.8146C14.4947 13.8725 14.4959 13.9303 14.4972 13.9899C14.5011 14.1111 14.5052 14.2322 14.5092 14.3533C14.5187 14.8151 14.4696 15.2022 14.1681 15.5756C13.8348 15.9079 13.4146 16.003 12.9479 16.0129C12.8226 16.0136 12.6973 16.0138 12.572 16.0136C12.5026 16.0138 12.4332 16.0141 12.3638 16.0144C12.1763 16.015 11.9888 16.0151 11.8014 16.0149C11.6444 16.0149 11.4874 16.0151 11.3304 16.0154C10.9598 16.0159 10.5892 16.0159 10.2186 16.0156C9.83735 16.0153 9.4561 16.0159 9.07485 16.017C8.74653 16.0179 8.41821 16.0182 8.08989 16.018C7.89423 16.0179 7.69859 16.018 7.50293 16.0187C7.31881 16.0194 7.13471 16.0193 6.95059 16.0186C6.85158 16.0184 6.75256 16.019 6.65355 16.0196C6.09255 16.0163 5.63 15.9341 5.21288 15.5542C4.81605 15.0831 4.89865 14.5711 4.92992 13.9979C4.94827 13.6639 4.94827 13.6639 4.82832 13.3607C4.73726 13.2752 4.6426 13.2016 4.54191 13.1269C3.89276 12.315 3.85274 11.4341 3.87094 10.452C3.83009 10.441 3.78924 10.4299 3.74715 10.4185C3.50524 10.3332 3.28914 10.2164 3.06449 10.096C2.72664 9.91635 2.38808 9.73852 2.04615 9.56617C1.98157 9.53348 1.91699 9.50079 1.85242 9.4681C1.75792 9.42026 1.66337 9.37255 1.56855 9.32531C0.997303 9.04047 0.257105 8.65708 0.0229602 8.03269C-0.0778074 7.56355 -0.0205092 7.17655 0.224775 6.76141C0.45023 6.43298 0.763302 6.18773 1.17112 6.1054C1.66298 6.05369 2.05964 6.17844 2.4903 6.39318C2.5372 6.41562 2.58411 6.43807 2.63244 6.46119C2.72836 6.50723 2.82407 6.55369 2.91954 6.6006C3.12235 6.69982 3.32589 6.79761 3.52956 6.8952C3.56751 6.9134 3.60546 6.93159 3.64456 6.95034C3.73722 6.99477 3.82989 7.03918 3.92256 7.08358C3.92237 7.05366 3.92218 7.02374 3.92198 6.99291C3.91741 6.26311 3.914 5.53332 3.91186 4.80351C3.9108 4.45058 3.90935 4.09765 3.90698 3.74472C3.90492 3.43692 3.90359 3.12913 3.90313 2.82133C3.90286 2.65851 3.90213 2.49571 3.90073 2.3329C3.89922 2.15066 3.89902 1.96845 3.89912 1.7862C3.89838 1.73286 3.89763 1.67952 3.89687 1.62456C3.89947 1.16333 4.01729 0.765294 4.35078 0.422591C4.89496 -0.0469799 5.72336 -0.174341 6.3909 0.132537ZM4.56994 0.838419C4.31052 1.17312 4.31365 1.48806 4.31706 1.89175C4.31696 1.9518 4.31685 2.01184 4.31674 2.07371C4.31662 2.23757 4.31717 2.4014 4.31806 2.56525C4.31884 2.73709 4.31878 2.90893 4.31882 3.08077C4.31901 3.36917 4.31978 3.65756 4.32094 3.94596C4.32244 4.3158 4.32297 4.68565 4.3232 5.0555C4.3234 5.37404 4.32405 5.69257 4.32476 6.01111C4.32498 6.11326 4.32513 6.21541 4.32527 6.31755C4.32557 6.50799 4.32633 6.69842 4.32714 6.88885C4.32723 6.97355 4.32723 6.97355 4.32732 7.05995C4.32761 7.11189 4.32791 7.16383 4.32821 7.21735C4.32844 7.28482 4.32844 7.28482 4.32868 7.35366C4.33561 7.48257 4.3574 7.6018 4.38707 7.72754C4.07483 7.6212 3.78287 7.49342 3.48768 7.34945C3.44281 7.32779 3.39793 7.30612 3.3517 7.28381C3.20963 7.21519 3.0677 7.14631 2.92578 7.07739C2.78293 7.00815 2.64005 6.93898 2.4971 6.86991C2.40847 6.82708 2.31989 6.78413 2.23137 6.74108C2.19138 6.72172 2.1514 6.70237 2.1102 6.68244C2.05757 6.65687 2.05757 6.65687 2.00387 6.63079C1.72391 6.50431 1.43888 6.51127 1.13546 6.53869C0.794585 6.69335 0.541717 6.99284 0.41288 7.33126C0.372291 7.58554 0.378471 7.8042 0.51288 8.03095C0.89798 8.52415 1.41247 8.77945 1.97094 9.05262C2.08877 9.11112 2.20647 9.16984 2.32418 9.22855C2.40227 9.26748 2.4804 9.30633 2.55857 9.3451C2.93768 9.53333 3.31154 9.73018 3.68389 9.93048C3.72512 9.95239 3.76636 9.97431 3.80885 9.99689C3.84363 10.0156 3.87841 10.0343 3.91424 10.0536C4.05092 10.1169 4.19087 10.1606 4.33546 10.2043C4.33465 10.2415 4.33384 10.2786 4.333 10.3169C4.32974 10.4889 4.32776 10.6608 4.32578 10.8328C4.32449 10.8912 4.32319 10.9496 4.32185 11.0098C4.31456 11.8616 4.55068 12.4969 5.15361 13.1223C5.25437 13.2165 5.35615 13.2968 5.47094 13.3746C5.45427 13.4092 5.43759 13.4437 5.42041 13.4793C5.32428 13.7401 5.34867 14.0139 5.34836 14.2879C5.34647 14.3782 5.34647 14.3782 5.34453 14.4703C5.34318 14.8645 5.36764 15.0573 5.65844 15.3384C5.88762 15.5106 5.99053 15.5603 6.27956 15.5615C6.34179 15.5618 6.40402 15.5622 6.46814 15.5625C6.53747 15.5627 6.6068 15.5628 6.67614 15.5629C6.74887 15.5632 6.82161 15.5636 6.89434 15.5639C7.09227 15.5648 7.2902 15.5653 7.48813 15.5657C7.61178 15.566 7.73544 15.5663 7.85909 15.5666C8.24595 15.5675 8.63281 15.5682 9.01967 15.5686C9.46627 15.5691 9.91285 15.5704 10.3594 15.5724C10.7046 15.5739 11.0497 15.5747 11.3949 15.5748C11.601 15.5749 11.8072 15.5754 12.0133 15.5766C12.2073 15.5778 12.4014 15.578 12.5954 15.5775C12.6665 15.5775 12.7376 15.5778 12.8087 15.5785C13.3128 15.5917 13.3128 15.5917 13.729 15.356C13.8873 15.2052 14.0337 15.0543 14.0454 14.8342C14.0454 14.7823 14.0455 14.7305 14.0455 14.677C14.0456 14.592 14.0456 14.592 14.0457 14.5053C14.0455 14.4458 14.0453 14.3864 14.0451 14.3251C14.0453 14.2662 14.0455 14.2073 14.0457 14.1466C14.0457 14.0897 14.0456 14.0328 14.0455 13.9743C14.0455 13.9222 14.0454 13.8702 14.0454 13.8166C14.0428 13.672 14.0428 13.672 14.0083 13.5344C13.9978 13.4798 13.9978 13.4798 13.9871 13.4241C14.0542 13.3394 14.0542 13.3394 14.158 13.257C15.0443 12.4675 15.4789 11.2048 15.5465 10.0687C15.5523 9.85734 15.5552 9.64617 15.5568 9.43478C15.5578 9.35467 15.5588 9.27456 15.5599 9.19446C15.5626 8.98002 15.5646 8.76559 15.5665 8.55115C15.5677 8.41756 15.5691 8.28397 15.5704 8.15038C15.5756 7.64836 15.58 7.14633 15.5838 6.6443C15.5862 6.3411 15.5891 6.0379 15.5924 5.7347C15.5962 5.38377 15.5992 5.03284 15.6012 4.68189C15.6022 4.50191 15.6035 4.32196 15.6056 4.14199C15.6079 3.9434 15.6086 3.74484 15.609 3.54624C15.6099 3.48842 15.6109 3.4306 15.6118 3.37104C15.6107 2.98227 15.5536 2.71577 15.2792 2.41524C15.2456 2.38855 15.212 2.36186 15.1774 2.33436C15.1439 2.3069 15.1105 2.27944 15.076 2.25115C14.7396 2.02873 14.3816 2.05251 13.9871 2.08049C13.6693 2.14803 13.4078 2.35234 13.2226 2.60371C13.1315 2.78308 13.1032 2.93818 13.1025 3.13678C13.1022 3.17927 13.102 3.22176 13.1017 3.26553C13.1016 3.31175 13.1016 3.35797 13.1015 3.40559C13.1013 3.45458 13.101 3.50358 13.1007 3.55406C13.1002 3.66048 13.0997 3.76689 13.0994 3.8733C13.0988 4.042 13.0978 4.21069 13.0966 4.37939C13.0935 4.85906 13.0907 5.33872 13.0889 5.81839C13.0879 6.11187 13.086 6.40533 13.0837 6.6988C13.083 6.81038 13.0826 6.92196 13.0824 7.03354C13.0821 7.19014 13.0809 7.34671 13.0795 7.5033C13.0798 7.57173 13.0798 7.57173 13.08 7.64154C13.0736 8.12819 12.9571 8.56272 12.5935 8.9164C12.2295 9.19944 11.7989 9.34332 11.3312 9.32662C10.9006 9.28091 10.5971 9.13444 10.2709 8.86686C10.2398 8.84234 10.2087 8.81782 10.1766 8.79256C10.1042 8.73544 10.0327 8.67742 9.96127 8.61919C9.85907 8.71727 9.75688 8.81535 9.65159 8.9164C9.72928 9.0909 9.83646 9.20258 9.97417 9.33745C10.5531 9.94655 10.7698 10.754 10.8161 11.5604C10.8183 11.5968 10.8206 11.6333 10.8229 11.6708C10.8283 11.7599 10.8335 11.849 10.8387 11.9381C10.7024 11.9381 10.5662 11.9381 10.4258 11.9381C10.427 11.9026 10.4282 11.8672 10.4294 11.8307C10.4454 10.9848 10.2691 10.2267 9.7032 9.56036C9.67266 9.52428 9.64213 9.48821 9.61066 9.45104C9.52535 9.3594 9.44801 9.28236 9.34191 9.21361C9.17755 9.2048 9.17755 9.2048 9.03223 9.26315C8.51636 9.40883 8.05046 9.30489 7.58707 9.06501C7.3981 8.95114 7.28042 8.82278 7.17175 8.63737C7.08912 8.52513 7.04797 8.47804 6.90843 8.44167C6.77495 8.43455 6.6463 8.4379 6.51288 8.44581C6.46827 8.44696 6.42366 8.44811 6.3777 8.44929C6.1074 8.45791 5.84191 8.4843 5.57417 8.52011C5.57417 8.40569 5.57417 8.29126 5.57417 8.17337C5.85694 8.13002 6.13668 8.10945 6.42256 8.09597C6.46524 8.09383 6.50792 8.09169 6.55189 8.08948C6.65608 8.08428 6.76029 8.07927 6.86449 8.07429C6.86571 7.44717 6.86661 6.82004 6.86717 6.19291C6.86743 5.90149 6.86779 5.61007 6.86839 5.31865C6.8699 4.55297 6.86944 3.78733 6.86449 3.02166C6.86419 2.97334 6.86389 2.92502 6.86358 2.87524C6.86173 2.61022 6.85864 2.34526 6.85351 2.08028C6.85212 2.00254 6.85105 1.92479 6.85034 1.84704C6.84588 1.40529 6.83343 1.09316 6.52175 0.748442C6.17564 0.467862 5.85779 0.364759 5.4024 0.379247C5.05048 0.4227 4.81709 0.605721 4.56994 0.838419Z" fill="#050505"/>
<path d="M9.34191 3.96286C9.57391 4.17095 9.74654 4.34694 9.76275 4.66211C9.76342 4.72571 9.76408 4.7893 9.76476 4.85482C9.7654 4.90753 9.7654 4.90753 9.76604 4.9613C9.76732 5.0776 9.76818 5.19389 9.76892 5.31019C9.7692 5.35 9.76947 5.38981 9.76976 5.43082C9.77113 5.64165 9.77213 5.85248 9.77288 6.06332C9.77357 6.2374 9.775 6.41145 9.77711 6.58552C9.77967 6.79607 9.78094 7.0066 9.7813 7.21716C9.78165 7.29717 9.78243 7.37717 9.78367 7.45716C9.79549 8.26558 9.79549 8.26558 9.49675 8.56967C9.21626 8.83886 8.92238 8.96719 8.529 8.99382C8.16553 8.98195 7.8044 8.82607 7.54574 8.5805C7.33688 8.31087 7.26455 8.07006 7.26321 7.73872C7.26295 7.70599 7.26269 7.67325 7.26242 7.63952C7.2617 7.5318 7.26175 7.4241 7.26187 7.31638C7.26167 7.24105 7.26144 7.16572 7.2612 7.09039C7.26081 6.93262 7.26083 6.77486 7.2611 6.61709C7.2614 6.41572 7.26052 6.21437 7.25933 6.01301C7.25856 5.85742 7.25852 5.70184 7.25868 5.54626C7.25865 5.47206 7.25839 5.39787 7.25786 5.32367C7.2528 4.50202 7.2528 4.50202 7.52134 4.13991C8.04437 3.64103 8.7231 3.54772 9.34191 3.96286Z" fill="#FCF9DF"/>
<path d="M12.2968 4.56039C12.5769 4.81237 12.7096 5.14737 12.7294 5.50961C12.7307 5.6236 12.7306 5.73762 12.7293 5.85161C12.7294 5.91252 12.7295 5.97343 12.7296 6.03619C12.7296 6.16429 12.7289 6.29239 12.7276 6.42048C12.7258 6.61573 12.7265 6.81087 12.7275 7.00612C12.7272 7.13109 12.7267 7.25605 12.726 7.38102C12.7263 7.43893 12.7265 7.49683 12.7268 7.55649C12.7209 7.9528 12.6581 8.27109 12.3944 8.58477C12.0488 8.86025 11.7384 9.00179 11.2819 8.98628C10.9047 8.92887 10.6166 8.74104 10.3823 8.45803C10.2427 8.25571 10.2062 8.11442 10.2044 7.86914C10.2037 7.80764 10.2031 7.74613 10.2024 7.68276C10.2022 7.61579 10.2021 7.54881 10.202 7.48183C10.2017 7.41286 10.2014 7.34389 10.201 7.27492C10.2004 7.13043 10.2002 6.98594 10.2003 6.84145C10.2003 6.65678 10.1989 6.47214 10.1971 6.28748C10.1959 6.14503 10.1957 6.00259 10.1958 5.86013C10.1957 5.79208 10.1952 5.72402 10.1944 5.65597C10.1874 5.0006 10.1874 5.0006 10.4258 4.75544C10.4581 4.72198 10.4904 4.68852 10.5236 4.65405C11.056 4.20035 11.7045 4.19966 12.2968 4.56039Z" fill="#FCF9DE"/>
</g>
<defs>
<clipPath id="clip0_4199_305">
<rect width="16" height="16" fill="white"/>
</clipPath>
</defs>
</svg>
