<?xml version="1.0" standalone="no"?>
<!DOCTYPE svg PUBLIC "-//W3C//DTD SVG 20010904//EN"
 "http://www.w3.org/TR/2001/REC-SVG-20010904/DTD/svg10.dtd">
<svg version="1.0" xmlns="http://www.w3.org/2000/svg"
 width="1000.000000pt" height="1080.000000pt" viewBox="0 0 1000.000000 1080.000000"
 preserveAspectRatio="xMidYMid meet">

<g transform="translate(0.000000,1080.000000) scale(0.100000,-0.100000)"
fill="#000000" stroke="none">
<path d="M6769 8838 c-191 -18 -392 -130 -508 -285 -59 -79 -100 -194 -174
-488 -110 -432 -162 -788 -138 -934 6 -36 9 -66 8 -68 -2 -1 -32 7 -67 19 -82
26 -255 35 -343 19 -96 -19 -202 -75 -269 -142 -91 -91 -78 -99 65 -43 157 62
288 77 434 49 154 -29 290 -121 349 -236 41 -81 54 -143 54 -259 -1 -139 -19
-237 -70 -366 -23 -59 -44 -131 -47 -160 -5 -50 -4 -54 15 -54 29 0 67 53 112
157 166 387 156 670 -33 869 -36 39 -82 79 -101 89 -20 11 -36 25 -36 31 0 18
156 789 195 960 52 234 113 359 236 489 135 142 290 190 487 149 299 -61 444
-304 459 -765 8 -263 -18 -476 -113 -907 -55 -254 -76 -338 -165 -662 -107
-389 -161 -612 -150 -623 17 -17 58 20 85 76 14 30 43 112 65 183 22 71 85
262 140 424 318 937 403 1567 266 1976 -115 345 -402 535 -756 502z"/>
<path d="M3025 8639 c-230 -38 -426 -181 -524 -383 -69 -141 -86 -231 -85
-451 0 -203 10 -282 64 -510 66 -277 165 -554 380 -1060 136 -319 158 -379
190 -519 45 -190 51 -284 60 -906 8 -645 13 -703 70 -925 157 -610 589 -973
1285 -1081 136 -20 386 -15 479 11 65 18 157 62 195 92 l24 19 74 -42 c80 -46
228 -96 332 -114 104 -18 311 -14 428 9 489 95 984 456 1241 904 102 178 190
411 233 613 31 146 34 407 5 529 -45 195 -120 329 -266 476 -199 200 -421 319
-960 514 -287 103 -537 175 -784 224 -82 17 -150 32 -153 34 -2 3 2 36 9 73
20 108 17 354 -6 439 -87 328 -348 506 -680 465 -279 -34 -482 -187 -560 -420
-50 -150 -54 -344 -11 -511 20 -78 29 -97 94 -204 30 -49 64 -112 77 -140 35
-77 30 -26 -15 149 -81 315 -77 522 15 698 65 122 182 210 330 248 275 71 539
-54 618 -292 8 -25 20 -115 25 -200 6 -84 13 -184 16 -223 l5 -70 -217 0
c-257 0 -327 -12 -471 -81 -154 -74 -243 -182 -294 -359 -19 -68 -23 -103 -23
-225 1 -132 3 -152 28 -225 44 -125 98 -209 206 -315 137 -136 285 -216 496
-271 78 -21 113 -24 265 -23 189 0 256 12 392 69 91 38 99 40 92 22 -13 -35
16 -162 56 -242 78 -159 219 -293 405 -385 147 -72 234 -94 377 -95 192 0 184
24 -47 142 -263 134 -425 242 -541 359 -48 49 -74 88 -118 178 -32 66 -67 123
-80 131 -21 14 -28 14 -75 -4 -177 -70 -453 -80 -672 -23 -263 68 -442 185
-542 353 -97 164 -122 419 -57 567 64 143 217 233 445 261 273 33 677 -24
1155 -165 799 -236 1204 -516 1304 -902 62 -238 -17 -735 -165 -1038 -217
-443 -704 -821 -1192 -924 -245 -52 -505 -29 -712 62 -43 19 -84 31 -105 29
-19 -1 -89 -20 -155 -43 -186 -64 -334 -63 -580 2 -286 75 -506 200 -706 399
-353 353 -458 750 -459 1739 0 265 -14 530 -36 677 -28 196 -78 344 -244 720
-121 276 -161 382 -225 606 -98 343 -131 547 -122 768 9 252 95 441 243 540
155 102 387 100 597 -5 177 -90 285 -212 403 -459 115 -239 198 -586 219 -920
12 -174 21 -169 56 30 21 125 -2 398 -56 635 -50 222 -134 436 -225 571 -193
285 -530 448 -825 398z"/>
<path d="M4790 4469 c0 -16 39 -68 125 -164 182 -203 269 -403 297 -681 11
-115 7 -168 -27 -355 -18 -100 -10 -143 27 -137 67 10 98 153 105 488 l5 245
-26 80 c-72 214 -221 398 -396 489 -81 42 -110 51 -110 35z"/>
<path d="M0 400 l0 -400 5000 0 5000 0 0 400 0 400 -5000 0 -5000 0 0 -400z
m2192 123 c23 -20 23 -57 1 -74 -15 -11 -16 -11 -5 1 27 31 11 72 -33 83 -19
4 -19 5 -1 6 11 0 28 -6 38 -16z m-69 -8 c-3 -9 -8 -14 -10 -11 -3 3 -2 9 2
15 9 16 15 13 8 -4z m-1760 -114 c22 -61 43 -108 47 -104 4 4 24 56 45 116 21
59 42 107 47 107 11 0 9 -5 -42 -149 -23 -64 -44 -107 -53 -109 -15 -3 -17 0
-67 143 -15 44 -31 88 -36 99 -5 13 -3 17 6 14 8 -2 32 -55 53 -117z m517 89
c0 -23 4 -30 20 -30 11 0 20 -4 20 -10 0 -5 -10 -10 -21 -10 -20 0 -21 -4 -17
-71 3 -55 8 -74 23 -85 23 -17 14 -29 -13 -15 -11 6 -22 25 -26 42 -10 51 -7
209 4 209 6 0 10 -13 10 -30z m515 16 c25 -11 33 -19 29 -30 -7 -19 -5 -19
-40 -1 -36 18 -55 19 -78 2 -28 -21 -9 -45 49 -62 87 -25 108 -74 54 -127 -29
-29 -33 -30 -90 -25 -68 6 -72 8 -64 29 5 13 12 14 40 5 50 -15 100 1 100 33
0 16 -8 28 -25 36 -87 40 -105 51 -108 67 -14 70 53 106 133 73z m105 -16 c0
-25 4 -30 25 -30 16 0 25 -6 25 -15 0 -9 -9 -15 -25 -15 -24 0 -25 -3 -25 -60
0 -55 2 -62 25 -72 14 -6 25 -15 25 -20 0 -18 -31 -20 -55 -4 -24 16 -25 20
-25 131 0 96 3 115 15 115 10 0 15 -10 15 -30z m482 -32 l3 -62 36 32 c20 18
45 32 55 32 14 0 9 -9 -21 -40 l-39 -40 42 -60 c40 -57 41 -60 20 -60 -16 0
-32 14 -53 45 -16 25 -33 45 -37 45 -5 0 -8 -20 -8 -45 0 -38 -3 -45 -20 -45
-19 0 -20 7 -20 130 0 122 1 130 20 130 16 0 19 -8 22 -62z m193 30 c1 -20 -2
-24 -11 -17 -8 7 -14 6 -17 -3 -3 -7 -6 2 -6 20 -1 27 3 33 17 30 11 -2 17
-13 17 -30z m-44 -35 c13 -16 12 -17 -3 -4 -17 13 -22 21 -14 21 2 0 10 -8 17
-17z m-1502 -19 c12 -15 21 -40 21 -55 0 -29 0 -29 -65 -29 -72 0 -83 -12 -44
-51 17 -17 30 -20 65 -16 43 4 59 -5 28 -17 -45 -17 -106 3 -123 41 -45 98 56
206 118 127z m191 16 c17 -11 10 -13 -40 -10 -47 2 -75 -28 -75 -80 0 -55 26
-80 82 -80 27 0 42 -4 38 -10 -9 -15 -78 -12 -102 5 -50 35 -50 135 0 170 24
17 74 20 97 5z m265 -13 c20 -16 28 -35 32 -69 5 -42 3 -50 -25 -78 -41 -41
-83 -41 -124 0 -28 28 -30 36 -25 78 9 82 84 119 142 69z m85 7 c0 -14 2 -14
22 0 24 17 38 20 38 9 0 -5 -14 -16 -30 -25 -29 -17 -30 -19 -30 -93 0 -43 -4
-75 -10 -75 -6 0 -10 40 -10 100 0 60 4 100 10 100 6 0 10 -7 10 -16z m537 1
c30 -21 44 -75 32 -120 -25 -88 -143 -88 -168 0 -20 72 20 135 84 135 17 0 40
-7 52 -15z m198 -5 c0 -10 -8 -14 -27 -12 -58 6 -91 -42 -67 -100 11 -28 36
-40 74 -35 12 1 20 -4 20 -13 0 -19 -48 -25 -85 -10 -63 26 -68 148 -6 179 31
15 91 9 91 -9z m5374 -83 c8 -26 17 -47 21 -47 4 0 13 21 21 47 8 25 20 48 27
51 8 2 4 -19 -12 -63 -36 -99 -36 -99 -72 0 -16 44 -20 65 -12 63 7 -3 19 -26
27 -51z m638 36 c3 -8 -6 -11 -24 -10 -35 3 -37 -19 -3 -36 33 -16 40 -63 11
-72 -24 -7 -61 2 -61 15 0 5 14 7 30 4 22 -5 30 -3 30 8 0 8 -13 24 -30 36
-32 24 -37 41 -18 60 15 15 60 12 65 -5z m333 -18 c0 -37 10 -44 30 -20 7 8
17 15 22 15 6 0 5 -7 -2 -15 -12 -14 -11 -29 5 -67 11 -27 -10 -21 -25 7 -7
14 -17 25 -22 25 -4 0 -8 -11 -8 -25 0 -14 -4 -25 -10 -25 -6 0 -10 30 -10 70
0 40 4 70 10 70 6 0 10 -16 10 -35z m580 32 c0 -4 -34 -104 -45 -136 -3 -8 -8
-11 -11 -8 -8 7 38 147 48 147 4 0 8 -2 8 -3z m100 -11 c0 -7 -7 -19 -15 -26
-13 -11 -12 -14 6 -29 40 -32 0 -82 -51 -66 -30 9 -24 26 6 19 17 -4 29 -2 35
7 10 16 -7 39 -29 39 -13 0 -13 2 1 18 23 25 21 32 -8 32 -14 0 -25 5 -25 10
0 6 18 10 40 10 27 0 40 -4 40 -14z m114 5 c3 -5 -8 -11 -24 -15 -32 -6 -41
-26 -12 -26 39 0 58 -55 27 -80 -53 -44 -100 63 -49 114 17 17 50 21 58 7z
m106 -1 c0 -5 -11 -10 -25 -10 -32 0 -33 -26 -1 -34 13 -3 27 -13 30 -22 15
-40 -21 -73 -64 -59 -31 10 -24 23 13 21 26 -1 32 3 32 19 0 15 -8 21 -30 23
-29 3 -31 5 -27 37 4 32 7 35 38 35 19 0 34 -4 34 -10z m110 -34 c0 -26 5 -47
13 -50 10 -5 10 -7 0 -12 -7 -3 -13 -12 -13 -20 0 -8 -4 -14 -10 -14 -5 0 -10
7 -10 15 0 10 -10 15 -30 15 -37 0 -37 7 -3 65 36 58 53 58 53 1z m130 39 c0
-6 -60 -127 -66 -134 -2 -2 -7 -2 -10 1 -3 3 6 29 20 57 14 28 26 53 26 56 0
3 -13 5 -30 5 -16 0 -30 5 -30 10 0 6 20 10 45 10 25 0 45 -2 45 -5z m84 -11
c23 -22 20 -80 -4 -104 -21 -21 -60 -27 -60 -10 0 6 8 10 18 10 18 0 42 18 42
31 0 4 -9 5 -20 2 -26 -7 -50 13 -50 41 0 43 44 61 74 30z m110 0 c20 -20 20
-73 0 -102 -15 -22 -64 -31 -64 -12 0 6 9 10 20 10 10 0 24 9 29 19 9 16 8 18
-9 14 -26 -7 -50 13 -50 41 0 43 44 61 74 30z m116 6 c0 -5 -11 -10 -24 -10
-36 0 -41 -27 -7 -33 16 -3 31 -14 35 -23 15 -40 -20 -73 -64 -59 -31 10 -24
25 9 19 16 -3 31 -1 35 4 12 19 -6 42 -33 42 -25 0 -27 3 -23 35 4 32 7 35 38
35 19 0 34 -4 34 -10z m-2082 -27 c12 -12 13 -18 4 -21 -14 -4 -17 -62 -2 -62
6 0 10 -5 10 -11 0 -6 -8 -9 -17 -7 -25 5 -40 118 -16 118 2 0 12 -8 21 -17z
m360 0 c12 -12 13 -18 4 -21 -14 -4 -17 -62 -2 -62 6 0 10 -5 10 -11 0 -6 -8
-9 -17 -7 -25 5 -40 118 -16 118 2 0 12 -8 21 -17z m-530 -15 c23 -23 13 -38
-24 -38 -24 0 -34 -4 -31 -12 2 -7 16 -13 30 -13 30 1 36 -12 11 -22 -28 -11
-64 14 -64 45 0 33 16 52 45 52 12 0 26 -5 33 -12z m109 -3 c2 -6 -9 -11 -24
-10 -23 0 -28 -4 -28 -25 0 -21 5 -25 28 -25 15 1 26 -4 24 -10 -5 -15 -46
-18 -63 -5 -17 15 -18 62 -2 78 15 15 60 12 65 -3z m177 -1 c9 -8 16 -24 16
-34 0 -22 -26 -50 -46 -50 -32 0 -54 21 -54 50 0 45 52 66 84 34z m56 5 c0 -8
5 -7 15 1 24 20 29 4 6 -19 -12 -12 -21 -32 -21 -46 0 -14 -4 -25 -10 -25 -5
0 -10 23 -10 50 0 28 5 50 10 50 6 0 10 -5 10 -11z m304 -5 c9 -8 16 -24 16
-34 0 -22 -26 -50 -46 -50 -32 0 -54 21 -54 50 0 45 52 66 84 34z m113 1 c2
-6 -9 -11 -24 -10 -23 0 -28 -4 -28 -25 0 -21 5 -25 28 -25 15 1 26 -4 24 -10
-5 -15 -46 -18 -63 -5 -20 17 -18 67 4 79 20 13 54 10 59 -4z m250 0 c2 -6 -9
-11 -24 -10 -23 0 -28 -4 -28 -25 0 -21 5 -25 28 -25 15 1 26 -4 24 -10 -5
-15 -46 -18 -63 -5 -20 17 -18 67 4 79 20 13 54 10 59 -4z m107 -1 c9 -8 16
-24 16 -34 0 -22 -26 -50 -46 -50 -32 0 -54 21 -54 50 0 45 52 66 84 34z m56
6 c0 -6 8 -5 20 2 15 9 22 10 31 1 8 -8 16 -9 29 -1 32 20 50 3 50 -47 0 -25
-4 -45 -10 -45 -5 0 -10 18 -10 41 0 33 -3 40 -17 37 -13 -2 -19 -14 -21 -41
-4 -47 -22 -49 -22 -3 0 19 -5 38 -10 41 -18 11 -40 -15 -40 -46 0 -16 -4 -29
-10 -29 -5 0 -10 23 -10 50 0 28 5 50 10 50 6 0 10 -5 10 -10z m-270 -80 c0
-5 -4 -10 -10 -10 -5 0 -10 5 -10 10 0 6 5 10 10 10 6 0 10 -4 10 -10z"/>
<path d="M2150 500 c0 -5 5 -10 10 -10 6 0 10 5 10 10 0 6 -4 10 -10 10 -5 0
-10 -4 -10 -10z"/>
<path d="M536 418 c-28 -39 -21 -48 39 -48 59 0 67 9 45 51 -15 27 -64 25 -84
-3z"/>
<path d="M986 424 c-50 -50 -21 -144 44 -144 48 0 80 50 66 104 -13 53 -75 75
-110 40z"/>
<path d="M1616 408 c-32 -46 -8 -118 39 -118 28 0 55 34 55 70 0 36 -27 70
-55 70 -13 0 -31 -10 -39 -22z"/>
<path d="M8985 330 c-8 -13 13 -40 30 -40 18 0 26 25 12 39 -14 14 -34 14 -42
1z"/>
<path d="M9217 350 c-18 -29 -18 -30 2 -30 17 0 21 6 21 30 0 17 -1 30 -3 30
-1 0 -11 -13 -20 -30z"/>
<path d="M9424 375 c-4 -9 -2 -21 4 -27 15 -15 44 -1 40 19 -4 23 -36 29 -44
8z"/>
<path d="M9534 375 c-4 -9 -2 -21 4 -27 15 -15 44 -1 40 19 -4 23 -36 29 -44
8z"/>
<path d="M7398 343 c6 -2 18 -2 25 0 6 3 1 5 -13 5 -14 0 -19 -2 -12 -5z"/>
<path d="M7674 336 c-10 -26 4 -48 28 -44 17 2 23 10 23 28 0 18 -6 26 -23 28
-13 2 -25 -3 -28 -12z"/>
<path d="M8034 336 c-10 -26 4 -48 28 -44 17 2 23 10 23 28 0 18 -6 26 -23 28
-13 2 -25 -3 -28 -12z"/>
<path d="M8504 336 c-10 -26 4 -48 28 -44 17 2 23 10 23 28 0 18 -6 26 -23 28
-13 2 -25 -3 -28 -12z"/>
</g>
</svg>
